<svg width="32" height="32" viewBox="0 0 32 32" fill="none" xmlns="http://www.w3.org/2000/svg">
<path d="M1.23077 29.6033V4.51282C1.23077 2.70019 2.70019 1.23077 4.51282 1.23077H27.4872C29.2999 1.23077 30.7692 2.70019 30.7692 4.51282V20.9231C30.7692 22.7358 29.2999 24.2051 27.4872 24.2051H9.37231C8.37527 24.2051 7.4323 24.6584 6.80945 25.4369L2.98424 30.2183C2.40281 30.9452 1.23077 30.5341 1.23077 29.6033Z" fill="#CDBCE2"/>
<path d="M29.5385 4.51262C29.5384 3.37987 28.6202 2.46165 27.4874 2.46154H4.51262C3.37989 2.46165 2.46165 3.37989 2.46154 4.51262V28.9014L5.84856 24.6683C6.70495 23.5979 8.00164 22.9742 9.3726 22.9742H27.4874C28.6202 22.9741 29.5385 22.056 29.5385 20.9231V4.51262ZM32 20.9231C32 23.4154 29.9797 25.4356 27.4874 25.4357H9.3726C8.74953 25.4357 8.15975 25.719 7.77043 26.2055L3.94531 30.9874C2.63714 32.6224 7.09412e-05 31.6975 0 29.6034V4.51262C0.00010831 2.02042 2.02042 0.000108308 4.51262 0H27.4874C29.9796 0.000107832 31.9999 2.02043 32 4.51262V20.9231Z" fill="#AF99CC"/>
<path d="M6.64558 18.4615C6.42682 18.4615 6.26719 18.4113 6.16667 18.3108C6.06616 18.2103 6.01591 18.0506 6.01591 17.8319V7.899C6.01591 7.72754 6.09277 7.60042 6.24649 7.51765C6.40021 7.42896 6.63967 7.38462 6.96485 7.38462H7.49697C7.82215 7.38462 8.06161 7.42896 8.21533 7.51765C8.36905 7.60042 8.44591 7.72754 8.44591 7.899V16.3951H11.9579C12.1234 16.3951 12.2417 16.4572 12.3126 16.5814C12.3895 16.7056 12.4279 16.9036 12.4279 17.1756V17.6722C12.4279 17.9501 12.3895 18.1511 12.3126 18.2753C12.2417 18.3995 12.1234 18.4615 11.9579 18.4615H6.64558Z" fill="#221E2A"/>
<path d="M15.8361 18.4615C15.205 18.4615 14.8895 18.2964 14.8895 17.9661V7.89776C14.8895 7.72672 14.9661 7.5999 15.1195 7.51733C15.2729 7.42885 15.5117 7.38462 15.8361 7.38462H16.6678C17.1691 7.38462 17.4965 7.52912 17.6499 7.81814L20.2952 12.5161L20.4279 12.7461L20.5606 12.4719L23.2237 7.81814C23.383 7.52912 23.7133 7.38462 24.2146 7.38462H25.0374C25.6685 7.38462 25.9841 7.55567 25.9841 7.89776V17.9661C25.9841 18.2964 25.6685 18.4615 25.0374 18.4615H24.5774C23.9462 18.4615 23.6307 18.2964 23.6307 17.9661V11.4456L23.5687 11.4279L21.2861 15.5065C21.1505 15.7071 20.9411 15.8073 20.658 15.8073H20.2067C20.0593 15.8073 19.9354 15.7837 19.8352 15.7365C19.7349 15.6835 19.6494 15.6068 19.5786 15.5065L17.2871 11.4279L17.2252 11.4456V17.9661C17.2252 18.2964 16.9126 18.4615 16.2874 18.4615H15.8361Z" fill="#221E2A"/>
<path d="M12.4279 17.6722V17.1756C12.4279 16.9036 12.3895 16.7056 12.3126 16.5814C12.2505 16.4728 12.1522 16.4114 12.0177 16.3978L11.9579 16.3951L11.9576 15.78C12.3023 15.78 12.6473 15.9264 12.847 16.2758H12.8458C13.0063 16.5468 13.0435 16.8794 13.0436 17.1755V17.6725C13.0435 17.9711 13.0067 18.3077 12.8458 18.5799L12.847 18.5805C12.6473 18.93 12.3023 19.0769 11.9576 19.0769H6.64572C6.34978 19.0769 5.99675 19.0109 5.73165 18.7458C5.46655 18.4807 5.40052 18.1277 5.40052 17.8317V7.89904C5.40052 7.71867 5.44217 7.53001 5.54716 7.35637C5.64825 7.1893 5.78906 7.06956 5.93959 6.98558L5.93898 6.98438C5.94262 6.98228 5.94674 6.98103 5.9504 6.97897C5.95191 6.97815 5.9531 6.97677 5.95461 6.97596L5.95521 6.97656C6.24907 6.8129 6.61439 6.76923 6.96483 6.76923L6.96485 7.38462C6.63967 7.38462 6.40021 7.42896 6.24649 7.51765L6.19259 7.55048C6.07474 7.63262 6.01591 7.74887 6.01591 7.899V17.8319C6.01591 18.0506 6.06616 18.2103 6.16667 18.3108C6.25463 18.3987 6.38787 18.4482 6.56639 18.4591L6.64558 18.4615H11.9579C12.1234 18.4615 12.2417 18.3995 12.3126 18.2753C12.3703 18.1821 12.4066 18.0456 12.421 17.866L12.4279 17.6722ZM23.6343 18.0258C23.6711 18.3163 23.9856 18.4615 24.5774 18.4615H25.0374L25.2593 18.4537C25.7081 18.4202 25.9485 18.2776 25.9805 18.0258L25.9841 17.9661V7.89776C25.9841 7.59843 25.7425 7.42984 25.2593 7.39243L25.0374 7.38462L25.0375 6.76923C25.3885 6.76924 25.7481 6.81331 26.0405 6.97176C26.196 7.05603 26.3433 7.17878 26.4492 7.35096C26.556 7.52468 26.5994 7.71434 26.5994 7.89784V17.9663C26.5994 18.1509 26.5537 18.3406 26.4438 18.5132C26.3354 18.6834 26.1867 18.8022 26.0327 18.8828C25.7429 19.0345 25.3867 19.0769 25.0375 19.0769H24.5772C24.2281 19.0769 23.8718 19.0345 23.582 18.8828C23.428 18.8022 23.2793 18.6834 23.171 18.5132C23.0611 18.3407 23.0153 18.1509 23.0153 17.9663V13.6767L21.823 15.8071L21.8104 15.8299L21.796 15.8516C21.5251 16.2518 21.1051 16.4225 20.6577 16.4225H20.207C19.9975 16.4225 19.7776 16.3896 19.573 16.2933L19.5598 16.2873L19.5472 16.2806C19.3546 16.1787 19.1979 16.0338 19.076 15.8612L19.0574 15.8353L19.0423 15.8077L17.8404 13.6683V17.9663C17.8404 18.1498 17.7959 18.3391 17.6872 18.5114C17.5798 18.6815 17.4316 18.8004 17.2779 18.8816C16.9889 19.0343 16.6342 19.0769 16.2875 19.0769H15.8362C15.4871 19.0769 15.1309 19.0344 14.841 18.8828C14.687 18.8022 14.5377 18.6834 14.4294 18.5132C14.3196 18.3407 14.2744 18.1508 14.2743 17.9663V7.89784C14.2743 7.71768 14.3155 7.52926 14.4204 7.35577C14.5213 7.18884 14.6619 7.06888 14.8122 6.98498C14.814 6.98395 14.8158 6.98239 14.8176 6.98137C14.821 6.97948 14.8244 6.97721 14.8278 6.97536L14.8284 6.97596C15.1219 6.81263 15.4867 6.76923 15.8362 6.76923L15.8361 7.38462L15.6091 7.39303C15.3977 7.40961 15.2345 7.45095 15.1195 7.51733L15.0658 7.55048C14.9483 7.63242 14.8895 7.74806 14.8895 7.89776V17.9661C14.8896 18.255 15.1313 18.4176 15.6145 18.4537L15.8361 18.4615H16.2874L16.5069 18.4537C16.9517 18.4202 17.1898 18.2776 17.2214 18.0258L17.2252 17.9661V11.4456L17.2871 11.4279L19.5786 15.5065C19.6494 15.6068 19.7349 15.6835 19.8352 15.7365C19.9104 15.7719 19.9989 15.794 20.1006 15.8029L20.2067 15.8073H20.658C20.9057 15.8073 21.0968 15.7304 21.2317 15.5769L21.2861 15.5065L23.5687 11.4279L23.6307 11.4456V17.9661L23.6343 18.0258ZM8.44591 7.899C8.44591 7.74895 8.38723 7.63261 8.26951 7.55048L8.21533 7.51765C8.06161 7.42896 7.82215 7.38462 7.49697 7.38462L7.49668 6.76923C7.84702 6.76923 8.21247 6.81301 8.50629 6.97656L8.50689 6.97596L8.5081 6.97716C8.5129 6.97985 8.51835 6.98163 8.52312 6.98438L8.52192 6.98558C8.67257 7.06958 8.81379 7.18915 8.91495 7.35637C9.01994 7.53001 9.06158 7.71867 9.06158 7.89904V15.78H11.9576L11.9579 16.3951H8.44591V7.899ZM24.2146 7.38462L24.0345 7.39123C23.6334 7.42284 23.3631 7.56541 23.2237 7.81814L20.5606 12.4719L20.4279 12.7461L20.2952 12.5161L17.6499 7.81814C17.5156 7.56534 17.2482 7.42283 16.8476 7.39123L16.6678 7.38462L16.668 6.76923C17.2596 6.76926 17.8725 6.94216 18.1854 7.51623L20.4186 11.4808L22.6896 7.51262C23.0083 6.9435 23.6192 6.76923 24.2148 6.76923L24.2146 7.38462ZM25.0375 6.76923L25.0374 7.38462H24.2146L24.2148 6.76923H25.0375ZM16.668 6.76923L16.6678 7.38462H15.8361L15.8362 6.76923H16.668ZM7.49668 6.76923L7.49697 7.38462H6.96485L6.96483 6.76923H7.49668Z" fill="#191520"/>
</svg>
