<svg width="38" height="32" viewBox="0 0 38 32" fill="none" xmlns="http://www.w3.org/2000/svg">
<path d="M34.3949 0H2.99086C1.33905 0 0 1.33905 0 2.99086V23.1792C0 24.831 1.33905 26.17 2.99086 26.17H34.3949C36.0467 26.17 37.3857 24.831 37.3857 23.1792V2.99086C37.3857 1.33905 36.0467 0 34.3949 0Z" fill="#AF99CC"/>
<path d="M33.2733 3.73857H4.11243C3.90595 3.73857 3.73857 3.90595 3.73857 4.11243V22.0576C3.73857 22.2641 3.90595 22.4314 4.11243 22.4314H33.2733C33.4798 22.4314 33.6472 22.2641 33.6472 22.0576V4.11243C33.6472 3.90595 33.4798 3.73857 33.2733 3.73857Z" fill="#CDBCE2"/>
<path d="M6.0692 19.3471V6.78551H8.97631V16.9784H15.2751V19.3471H6.0692Z" fill="#191520"/>
<path d="M17.098 19.3471V6.78551H19.5026L24.8503 15.6504H23.5762L28.8341 6.78551H31.2208L31.2567 19.3471H28.5291L28.5111 10.9667H29.0136L24.8144 18.0192H23.5044L19.2155 10.9667H19.8257V19.3471H17.098Z" fill="#191520"/>
<path d="M0.0183021 31.2008C0.0183021 34.5659 4.98142 26.2186 6.94309 26.17C8.90478 26.1214 0.000136235 25.3363 0.000137329 21.0512C0.000137329 21.0512 0.0183021 27.8357 0.0183021 31.2008Z" fill="#AF99CC"/>
</svg>
